<svg width="1024" height="1024" viewBox="0 0 1024 1024" fill="none" xmlns="http://www.w3.org/2000/svg">
<rect width="1024" height="1024" fill="#18181B"/>
<path d="M117.745 412.184C92.7516 437.178 92.7516 477.7 117.745 502.694C142.739 527.688 183.261 527.688 208.255 502.694C233.248 477.7 233.248 437.178 208.255 412.184C183.261 387.191 142.739 387.191 117.745 412.184ZM471.299 765.738C446.305 790.731 446.305 831.254 471.299 856.247C496.292 881.241 536.815 881.241 561.808 856.247C586.802 831.254 586.802 790.731 561.808 765.738C536.815 740.744 496.292 740.744 471.299 765.738ZM163 457.439L154.515 465.924L508.068 819.478L516.553 810.993L525.039 802.507L171.485 448.954L163 457.439Z" fill="#6369F9"/>
<path d="M470.806 855.661C495.8 880.655 536.322 880.655 561.316 855.661C586.309 830.667 586.309 790.145 561.316 765.151C536.322 740.158 495.8 740.158 470.806 765.151C445.812 790.145 445.812 830.667 470.806 855.661ZM824.359 502.108C849.353 527.101 889.875 527.101 914.869 502.108C939.863 477.114 939.863 436.592 914.869 411.598C889.875 386.604 849.353 386.604 824.359 411.598C799.366 436.592 799.366 477.114 824.359 502.108ZM516.061 810.406L524.546 818.891L878.099 465.338L869.614 456.853L861.129 448.368L507.576 801.921L516.061 810.406Z" fill="#6369F9"/>
<path d="M516.061 874.5C551.407 874.5 580.061 845.846 580.061 810.5C580.061 775.154 551.407 746.5 516.061 746.5C480.715 746.5 452.061 775.154 452.061 810.5C452.061 845.846 480.715 874.5 516.061 874.5ZM516.061 277C551.407 277 580.061 248.346 580.061 213C580.061 177.654 551.407 149 516.061 149C480.715 149 452.061 177.654 452.061 213C452.061 248.346 480.715 277 516.061 277ZM516.061 810.5H528.061V213H516.061H504.061V810.5H516.061Z" fill="#6369F9"/>
</svg>
