<svg width="835" height="726" viewBox="0 0 835 726" fill="none" xmlns="http://www.w3.org/2000/svg">
<path d="M18.7452 263.184C-6.24839 288.178 -6.24839 328.701 18.7452 353.694C43.7387 378.688 84.2613 378.688 109.255 353.694C134.248 328.701 134.248 288.178 109.255 263.184C84.2613 238.191 43.7387 238.191 18.7452 263.184ZM372.299 616.738C347.305 641.731 347.305 682.254 372.299 707.247C397.292 732.241 437.815 732.241 462.808 707.247C487.802 682.254 487.802 641.731 462.808 616.738C437.815 591.744 397.292 591.744 372.299 616.738ZM64 308.439L55.5147 316.925L409.068 670.478L417.553 661.993L426.039 653.507L72.4853 299.954L64 308.439Z" fill="#6369F9"/>
<path d="M371.806 706.661C396.8 731.655 437.322 731.655 462.316 706.661C487.309 681.668 487.309 641.145 462.316 616.151C437.322 591.158 396.8 591.158 371.806 616.151C346.812 641.145 346.812 681.668 371.806 706.661ZM725.359 353.108C750.353 378.101 790.875 378.101 815.869 353.108C840.863 328.114 840.863 287.592 815.869 262.598C790.875 237.604 750.353 237.605 725.359 262.598C700.366 287.592 700.366 328.114 725.359 353.108ZM417.061 661.406L425.546 669.892L779.099 316.338L770.614 307.853L762.129 299.368L408.576 652.921L417.061 661.406Z" fill="#6369F9"/>
<path d="M417.061 725.5C452.407 725.5 481.061 696.846 481.061 661.5C481.061 626.154 452.407 597.5 417.061 597.5C381.715 597.5 353.061 626.154 353.061 661.5C353.061 696.846 381.715 725.5 417.061 725.5ZM417.061 128C452.407 128 481.061 99.3463 481.061 64C481.061 28.6537 452.407 0 417.061 0C381.715 0 353.061 28.6537 353.061 64C353.061 99.3463 381.715 128 417.061 128ZM417.061 661.5H429.061V64H417.061H405.061V661.5H417.061Z" fill="#6369F9"/>
</svg>
